<?xml version="1.0" encoding="utf-8"?>
<!-- Generator: Adobe Illustrator 17.0.0, SVG Export Plug-In . SVG Version: 6.00 Build 0)  -->
<!DOCTYPE svg PUBLIC "-//W3C//DTD SVG 1.1//EN" "http://www.w3.org/Graphics/SVG/1.1/DTD/svg11.dtd">
<svg version="1.1" xmlns="http://www.w3.org/2000/svg" xmlns:xlink="http://www.w3.org/1999/xlink" x="0px" y="0px" width="800px"
	 height="800px" viewBox="0 0 800 800" enable-background="new 0 0 800 800" xml:space="preserve">
<g id="atelier">
</g>
<g id="Calque_2">
	<g>
		<path fill="#FF0000" d="M399.996,795.35c-8.188,0-16.234-3.2-22.249-9.223L218.712,626.89L59.678,786.127
			c-8.988,9-22.512,11.696-34.263,6.833C13.663,788.097,6,776.632,6,763.914V582.405c0-8.302,3.284-16.266,9.135-22.155
			l181.264-182.459c5.885-5.924,13.884-9.291,22.234-9.291c0.022,0,0.044,0,0.065,0c8.326,0,16.536,3.314,22.43,9.197L369,505.112
			v-92.573L219.009,262.962L59.847,423.052c-8.975,9.033-22.567,11.761-34.339,6.906C13.737,425.105,6,413.629,6,400.896V219.387
			c0-8.33,3.306-16.319,9.192-22.213L196.456,15.665c12.252-12.268,32.127-12.3,44.417-0.069l159.09,158.32L559.175,13.748
			c5.901-5.937,13.926-9.248,22.296-9.248h181.509c12.698,0,24.15,7.612,29.026,19.337c4.876,11.725,2.218,25.217-6.736,34.222
			L445.091,400.131L784.52,739.122c6.105,5.734,9.917,13.893,9.917,22.929c0,17.361-14.074,31.448-31.435,31.448
			c-0.006,0-0.013,0-0.021,0H581.472c-8.326,0-16.526-3.319-22.419-9.201L431,656.689v107.225c0,12.718-7.451,24.183-19.202,29.046
			C407.912,794.569,404.042,795.35,399.996,795.35z M594.475,730.5h92.545L431,475.33v92.532L594.475,730.5z M218.712,550.969
			c8.344,0,16.569,3.318,22.466,9.222L369,687.953v-94.014L219.08,444.465L69,595.366v92.588l127.534-127.762
			C202.431,554.287,210.368,550.969,218.712,550.969z M431,231.447v93.258L687.387,67.5h-92.838L431,231.447z M69,232.396v92.257
			l127.463-128.617c5.886-5.925,13.823-9.536,22.174-9.536c0.02,0,0.041,0,0.061,0c8.33,0,16.542,3.562,22.437,9.449L369,323.683
			v-92.326L219.056,82.295L69,232.396z"/>
	</g>
</g>
</svg>
