<?xml version="1.0" encoding="utf-8"?>
<!-- Generator: Adobe Illustrator 17.0.0, SVG Export Plug-In . SVG Version: 6.00 Build 0)  -->
<!DOCTYPE svg PUBLIC "-//W3C//DTD SVG 1.1//EN" "http://www.w3.org/Graphics/SVG/1.1/DTD/svg11.dtd">
<svg version="1.1" xmlns="http://www.w3.org/2000/svg" xmlns:xlink="http://www.w3.org/1999/xlink" x="0px" y="0px" width="800px"
	 height="800px" viewBox="0 0 800 800" enable-background="new 0 0 800 800" xml:space="preserve">
<g id="atelier">
</g>
<g id="Calque_2">
	<g>
		<rect x="0" y="0.5" fill="#E50E0E" width="800" height="800"/>
	</g>
	<g>
		<g>
			<path fill="#FFF3E4" d="M400.002,677.511c-2.41,0-4.778-0.94-6.549-2.713L266.667,548.013L139.881,674.798
				c-2.647,2.651-6.668,3.445-10.128,2.007c-3.46-1.432-5.753-4.809-5.753-8.554v-400c0-3.742,2.289-7.116,5.745-8.55
				c3.451-1.438,7.454-0.651,10.104,1.989l126.775,126.264l260.123-260.7c1.737-1.74,4.1-2.755,6.558-2.755h133.333
				c3.745,0,7.122,2.292,8.555,5.754c1.433,3.46,0.64,7.46-2.007,10.108L413.067,400.491L672.711,660.14
				c1.974,1.698,3.224,4.253,3.224,7.062c0,5.114-4.146,9.299-9.259,9.299c-0.013,0-0.024,0-0.037,0H533.305
				c-2.443,0-4.917-1.003-6.651-2.723L409,557.148v111.104c0,3.745-2.126,7.122-5.586,8.554
				C402.268,677.281,401.194,677.511,400.002,677.511z M537.119,657.5h107.165L409,422.881v108.18L537.119,657.5z M266.667,525.659
				c2.37,0,4.869,0.904,6.677,2.713L391,645.898V400.999c0-0.342,0-0.684,0-1.025V289.805L273.337,407.584
				c-3.611,3.617-9.329,3.624-12.949,0.02L143,290.543v355.355l117.323-117.526C262.131,526.563,264.297,525.659,266.667,525.659z
				 M409,271.247v106.872L644.284,143.5H537.146L409,271.247z"/>
		</g>
		<g>
			<path fill="#FFFFFF" d="M266.639,544.178c-2.37,0-4.739-0.904-6.547-2.713L126.758,408.132c-3.616-3.615-3.616-9.478,0-13.093
				c3.617-3.617,9.478-3.617,13.095,0l126.786,126.785l126.786-126.785c3.617-3.617,9.478-3.617,13.095,0
				c3.616,3.615,3.616,9.478,0,13.093L273.186,541.465C271.378,543.273,269.009,544.178,266.639,544.178z"/>
		</g>
	</g>
</g>
</svg>
