<?xml version="1.0" encoding="utf-8"?>
<!-- Generator: Adobe Illustrator 17.0.0, SVG Export Plug-In . SVG Version: 6.00 Build 0)  -->
<!DOCTYPE svg PUBLIC "-//W3C//DTD SVG 1.1//EN" "http://www.w3.org/Graphics/SVG/1.1/DTD/svg11.dtd">
<svg version="1.1" xmlns="http://www.w3.org/2000/svg" xmlns:xlink="http://www.w3.org/1999/xlink" x="0px" y="0px" width="800px"
	 height="800px" viewBox="0 0 800 800" enable-background="new 0 0 800 800" xml:space="preserve">
<g id="atelier">
</g>
<g id="Calque_2">
	<g>
		<rect x="0" y="-0.5" fill="#E50E0E" width="801" height="801"/>
	</g>
	<g>
		<path fill="#FFF3E4" d="M400.502,678.357c-2.413,0-4.784-0.942-6.557-2.716L267,548.698L140.056,675.641
			c-2.652,2.655-6.754,3.449-10.218,2.01c-3.464-1.434-5.837-4.815-5.837-8.565v-133.5c0-2.452,1.086-4.804,2.816-6.542
			L260.36,394.615c1.736-1.744,4.152-3.115,6.612-3.115c0.005,0,0.01,0,0.014,0c2.455,0,4.696,1.36,6.435,3.095L391,512.442V405.224
			L266.89,281.164L140.012,408.629c-2.648,2.66-6.727,3.458-10.194,2.026c-3.469-1.432-5.818-4.815-5.818-8.568v-133.5
			c0-2.459,1.091-4.816,2.83-6.555l133.544-133.5c3.615-3.618,9.504-3.621,13.126-0.014l126.939,126.415l126.957-127.589
			c1.74-1.747,4.111-2.843,6.576-2.843h133.5c3.746,0,7.124,2.369,8.561,5.829c1.438,3.458,0.652,7.501-1.992,10.156
			L413.954,401.687l259.592,259.264c1.98,1.7,3.233,4.343,3.233,7.156c0,5.121-4.151,9.393-9.271,9.393c-0.013,0-0.024,0-0.037,0
			h-133.5c-2.455,0-4.696-1.089-6.435-2.823L410,557.143v111.943c0,3.75-2.373,7.131-5.837,8.565
			C403.016,678.127,401.696,678.357,400.502,678.357z M537.807,658.5h107.262L410,423.741v107.207L537.807,658.5z M267,526.316
			c2.373,0,4.63,0.905,6.441,2.716L391,646.704V538.637L267.006,414.662L143,539.416v107.288l117.559-117.673
			C262.37,527.221,264.627,526.316,267,526.316z M143,272.427v107.212l117.532-118.274c1.736-1.744,3.981-2.865,6.442-2.865
			c0.004,0,0.008,0,0.013,0c2.456,0,4.698,1.11,6.437,2.847L391,379.02V271.915L267,148.185L143,272.427z M410,271.851v107.788
			L645.156,143.5H537.823L410,271.851z"/>
	</g>
</g>
</svg>
