<?xml version="1.0" encoding="utf-8"?>
<!-- Generator: Adobe Illustrator 17.0.0, SVG Export Plug-In . SVG Version: 6.00 Build 0)  -->
<!DOCTYPE svg PUBLIC "-//W3C//DTD SVG 1.1//EN" "http://www.w3.org/Graphics/SVG/1.1/DTD/svg11.dtd">
<svg version="1.1" xmlns="http://www.w3.org/2000/svg" xmlns:xlink="http://www.w3.org/1999/xlink" x="0px" y="0px" width="800px"
	 height="800px" viewBox="0 0 800 800" enable-background="new 0 0 800 800" xml:space="preserve">
<g id="atelier">
</g>
<g id="Calque_2">
	<g>
		<rect x="0" y="-0.5" fill="#E50E0E" width="801" height="801"/>
	</g>
	<g>
		<path fill="#FFF3E4" d="M400.498,676.271c-1.194,0-2.514-0.23-3.661-0.706C393.373,674.131,391,670.75,391,667V555.882
			L273.441,673.669c-1.739,1.74-3.982,2.831-6.441,2.831H133.5c-3.75,0-7.131-2.373-8.566-5.838
			c-1.434-3.464-0.641-7.394,2.01-10.045L378.118,409.5H133.5c-0.009,0-0.5,0-0.5,0v-0.115c-1-0.004-2.188-0.309-3.269-0.754
			c-1.099-0.453-2.011-1.153-2.905-2.048c-0.893-0.893-1.622-1.937-2.074-3.036c-0.446-1.081-0.753-2.278-0.753-3.518
			c0-0.002,0-0.002,0-0.002c0-0.009,0-0.018,0-0.027V266.5c0-2.459,1.091-4.816,2.83-6.555l133.557-133.615
			c1.739-1.74,4.154-2.831,6.613-2.831h133.5c3.75,0,7.131,2.373,8.566,5.838c1.434,3.464,0.641,7.394-2.01,10.045L155.882,390.5
			H400.5c0.009,0,0.5,0,0.5,0v0.115c1,0.004,2.188,0.309,3.269,0.754c1.099,0.453,2.011,1.153,2.905,2.048
			c0.893,0.893,1.622,1.937,2.074,3.036c0.446,1.081,0.753,2.278,0.753,3.518c0,0.002,0,0.002,0,0.002c0,0.009,0,0.018,0,0.027
			v111.118L645.118,275.5H534c-5.12,0-9-3.879-9-9V133c0-3.75,2.123-7.131,5.587-8.565c3.466-1.438,7.384-0.643,10.036,2.01
			l133.466,133.5c0.893,0.893,1.664,1.923,2.116,3.022c0.446,1.081,0.795,2.263,0.795,3.504c0,0.002,0,0.002,0,0.002
			c0,0.009,0,0.018,0,0.027V400c0,2.459-1.091,4.816-2.83,6.555l-267.057,267C405.339,675.329,402.911,676.271,400.498,676.271z
			 M155.882,657.5h107.277L391,529.659V422.382L155.882,657.5z M410,537.341v107.277l248-248.458V288.882L410,537.341z M143,270.341
			v107.277L378.118,142.5H270.841L143,270.341z M543,257.5h102.118L543,155.382V257.5z"/>
	</g>
</g>
</svg>
